<?xml version="1.0" standalone="no"?>
<!DOCTYPE svg PUBLIC "-//W3C//DTD SVG 20010904//EN"
 "http://www.w3.org/TR/2001/REC-SVG-20010904/DTD/svg10.dtd">
<svg version="1.0" xmlns="http://www.w3.org/2000/svg"
 width="512.000000pt" height="512.000000pt" viewBox="0 0 512.000000 512.000000"
 preserveAspectRatio="xMidYMid meet">
<metadata>
Created by potrace 1.11, written by Peter Selinger 2001-2013
</metadata>
<g transform="translate(0.000000,512.000000) scale(0.100000,-0.100000)"
fill="#000000" stroke="none">
<path d="M1895 5098 c-44 -19 -170 -128 -148 -128 4 0 3 -4 -3 -8 -31 -20
-103 -193 -119 -287 -4 -22 -9 -51 -12 -65 -2 -14 -6 -61 -7 -106 -2 -45 -6
-86 -9 -91 -4 -6 -4 -13 0 -17 4 -3 8 -28 9 -54 1 -26 5 -74 8 -107 6 -57 9
-76 21 -135 3 -14 7 -36 10 -50 4 -20 53 -197 69 -245 11 -35 76 -206 86 -224
30 -60 54 -115 56 -128 2 -8 10 -23 18 -32 9 -10 16 -20 16 -24 0 -3 13 -28
29 -56 16 -27 27 -52 24 -55 -4 -3 -1 -6 6 -6 7 0 9 -4 6 -10 -3 -5 -2 -10 3
-10 5 0 16 -15 23 -32 7 -18 17 -37 21 -43 5 -5 33 -47 63 -92 51 -78 61 -105
23 -65 -26 27 -46 42 -58 42 -5 0 -10 5 -10 10 0 6 -5 10 -11 10 -6 0 -28 13
-48 28 -20 15 -57 39 -83 52 -27 14 -48 29 -48 33 0 5 -4 6 -9 2 -5 -3 -15 1
-23 8 -18 18 -95 57 -101 51 -2 -2 -10 2 -17 11 -7 8 -16 15 -21 15 -5 0 -32
11 -61 24 -129 59 -280 112 -403 143 -171 42 -194 45 -345 47 -139 1 -183 -4
-262 -32 -172 -61 -308 -225 -314 -382 -2 -55 2 -75 28 -130 17 -36 34 -67 37
-70 13 -10 45 -65 43 -72 -1 -5 2 -8 6 -8 14 0 69 -92 112 -190 12 -28 1 -126
-20 -174 -14 -33 -55 -82 -132 -161 -136 -136 -141 -142 -172 -203 -27 -53
-41 -122 -39 -195 2 -66 45 -151 105 -208 49 -46 173 -115 228 -126 17 -3 30
-8 30 -12 0 -4 8 -7 18 -8 9 0 31 -3 47 -6 82 -16 114 -20 157 -21 27 -1 48
-3 48 -6 0 -3 25 -5 55 -5 30 0 55 3 55 6 0 4 16 3 35 -1 19 -4 35 -4 35 1 0
4 18 6 40 4 22 -2 40 -1 40 3 0 4 17 8 38 9 37 1 102 9 112 13 3 1 8 2 12 1 3
0 27 6 52 13 25 8 46 12 46 10 0 -2 17 3 38 10 20 7 42 11 49 9 6 -2 14 1 18
6 3 6 16 11 29 11 12 0 26 3 30 7 3 4 12 8 19 9 7 1 35 11 63 22 29 12 55 18
58 15 3 -4 6 -1 6 5 0 7 7 12 15 12 27 0 347 155 353 171 2 5 8 9 14 9 9 0
157 87 168 100 3 3 22 14 42 25 20 10 35 23 32 27 -3 4 0 8 6 8 6 0 46 26 88
58 42 32 82 61 88 65 12 7 13 -101 0 -121 -4 -7 -4 -12 1 -12 4 0 8 -71 7
-158 0 -86 4 -165 8 -174 5 -10 4 -19 -2 -23 -6 -4 -8 -11 -4 -16 6 -11 13
-57 19 -138 2 -31 5 -56 6 -56 1 0 2 -16 3 -35 1 -19 5 -44 9 -55 3 -11 8 -40
11 -65 6 -42 9 -60 23 -120 3 -14 7 -32 8 -40 13 -86 102 -370 146 -469 16
-35 29 -70 29 -77 0 -7 3 -14 8 -16 4 -2 24 -36 45 -77 40 -77 124 -210 142
-223 5 -4 7 -8 3 -8 -5 0 0 -8 10 -19 9 -10 29 -33 45 -52 111 -138 222 -192
312 -155 18 8 36 12 39 8 3 -3 6 0 6 6 0 7 7 12 15 12 24 0 153 133 171 176 9
22 18 60 20 85 3 63 -37 132 -146 249 -151 163 -176 192 -176 202 1 3 -11 18
-26 32 -16 14 -28 29 -28 34 0 8 -11 23 -50 69 -5 7 -10 14 -10 17 0 2 -20 35
-46 72 -25 38 -52 83 -61 101 -8 18 -20 33 -25 33 -5 0 -7 4 -4 8 3 5 -10 34
-29 64 -18 31 -31 59 -28 62 4 3 1 6 -6 6 -7 0 -9 5 -6 10 3 6 2 10 -3 10 -5
0 -13 10 -17 22 -9 29 -8 25 -29 73 -10 22 -24 58 -33 80 -8 22 -19 49 -23 60
-12 29 -23 59 -26 70 -1 6 -14 51 -29 100 -30 102 -39 139 -39 177 -1 14 -4
24 -8 21 -5 -2 -8 4 -9 14 0 10 -2 27 -5 38 -30 147 -32 202 -7 163 4 -7 35
-35 68 -63 33 -27 62 -52 65 -56 3 -3 20 -14 38 -24 17 -11 32 -23 32 -27 0
-4 6 -8 13 -8 6 0 27 -14 46 -30 18 -17 40 -30 47 -30 8 0 14 -4 14 -9 0 -7
87 -66 145 -97 11 -6 53 -29 93 -52 62 -36 237 -124 252 -127 3 -1 25 -11 50
-23 25 -12 51 -22 58 -22 6 0 12 -5 12 -11 0 -5 4 -8 9 -4 6 3 26 -4 45 -15
20 -11 36 -18 36 -15 0 3 17 -1 38 -9 48 -18 154 -51 167 -52 6 0 24 -3 40 -7
31 -8 51 -12 120 -24 43 -8 291 -8 340 0 45 7 89 19 100 27 6 5 29 14 53 21
23 6 42 15 42 18 0 3 14 12 30 19 48 22 133 105 189 187 29 41 49 75 45 75 -3
0 -1 6 5 14 28 33 18 142 -19 206 -8 14 -15 27 -15 30 0 3 -13 24 -28 47 -15
24 -27 47 -27 52 0 5 -4 11 -8 13 -11 4 -78 116 -92 153 -7 17 -14 50 -17 75
-3 25 -6 46 -8 48 -8 8 31 101 57 137 16 22 72 86 126 142 96 100 105 111 129
149 19 28 48 98 45 107 -1 4 2 7 6 7 9 0 15 44 15 115 1 67 -5 105 -17 105 -5
0 -7 3 -4 6 4 3 -5 22 -18 41 -13 20 -24 40 -24 45 0 5 -4 6 -10 3 -5 -3 -10
0 -10 7 0 14 -44 58 -105 104 -36 28 -162 95 -189 101 -6 1 -42 11 -81 21 -38
10 -76 17 -82 15 -7 -3 -13 -1 -13 4 0 15 -270 6 -355 -11 -45 -9 -121 -28
-135 -34 -21 -7 -21 -8 -55 -17 -16 -4 -36 -13 -44 -19 -8 -6 -17 -10 -20 -8
-10 5 -131 -50 -131 -59 0 -5 -6 -6 -14 -3 -7 3 -20 -1 -27 -8 -8 -7 -21 -14
-29 -16 -8 -2 -17 -7 -20 -10 -3 -4 -30 -20 -60 -36 -30 -16 -57 -32 -60 -35
-3 -3 -17 -12 -32 -20 -15 -8 -36 -21 -45 -30 -10 -9 -44 -33 -75 -54 -32 -21
-58 -43 -58 -49 0 -6 -3 -9 -6 -5 -4 3 -12 1 -19 -6 -6 -7 -27 -23 -45 -37
-42 -31 -96 -77 -130 -110 -83 -80 -84 -74 -8 33 26 37 48 72 48 77 0 6 5 10
10 10 6 0 10 5 10 11 0 6 13 30 30 54 16 24 30 47 30 50 0 4 16 33 35 66 19
32 31 59 27 59 -4 0 -1 4 6 9 7 4 15 14 16 22 2 8 23 57 49 109 90 189 217
521 217 571 0 11 4 19 8 19 4 0 8 8 8 18 1 21 13 75 27 117 8 26 19 94 20 123
1 12 3 22 7 22 16 0 13 307 -4 367 -7 28 -11 54 -8 57 3 3 1 6 -5 6 -9 0 -26
35 -25 51 1 8 -79 105 -84 101 -2 -1 -18 5 -35 13 -42 22 -209 43 -209 26 0
-4 -11 -8 -26 -9 -14 -1 -34 -7 -45 -12 -11 -6 -24 -8 -29 -5 -6 3 -10 3 -10
-2 0 -11 -51 -34 -61 -27 -5 3 -9 0 -9 -6 0 -8 -24 -23 -60 -35 -3 -1 -30 -13
-61 -28 -127 -58 -250 -73 -356 -42 -58 17 -159 89 -219 156 -156 173 -225
218 -344 224 -49 3 -77 -1 -115 -17z"/>
</g>
</svg>
